#!OML:ASF E:\acrobat2\Project_11_07_03\Capture day 1\Session 1\Acrobat.ASF
:FULLY-SPECIFIED
:DEGREES
135
root 6.33555 18.2015 -3.10105 3.20698 2.49549 0.404867
lowerback -3.18106 0.0385608 5.41292
upperback 2.80004 -0.26814 0.749954
thorax 4.67241 0.0338944 -2.27596
lowerneck 1.03975 -2.59634 -1.7069
upperneck 21.2502 -4.011 3.01647
head 6.366 -1.84517 1.04754
rclavicle 9.74045e-015 -1.35174e-014
rhumerus -35.1295 -6.35753 -75.0119
rradius 29.0034
rwrist 1.29585
rhand -5.51956 -37.6416
rfingers 7.12502
rthumb 20.2941 -66.6013
lclavicle 9.74045e-015 -1.35174e-014
lhumerus -28.3015 -7.52351 85.1195
lradius 24.2803
lwrist 12.6242
lhand -12.3018 -14.0251
lfingers 7.12502
lthumb 13.7662 15.4995
rfemur 0.294938 2.12163 21.7164
rtibia 4.03249
rfoot -21.3748 -24.2527
rtoes 8.99847
lfemur -10.6735 3.59852 -8.45704
ltibia 14.6748
lfoot -7.50458 -1.55906
ltoes 32.4753
136
root 6.32899 18.1955 -3.10432 3.16982 2.50034 0.296324
lowerback -3.20932 0.0582999 5.47057
upperback 2.8162 -0.249307 0.794421
thorax 4.70732 0.0455221 -2.26075
lowerneck 1.07196 -2.6195 -1.88995
upperneck 21.271 -4.06551 3.1899
head 6.37555 -1.87309 1.13135
rclavicle 0 -1.90833e-014
rhumerus -35.1282 -6.33215 -75.0125
rradius 28.9493
rwrist 1.40378
rhand -5.7269 -37.339
rfingers 7.12502
rthumb 20.0949 -66.3198
lclavicle 0 -1.90833e-014
lhumerus -28.312 -7.55724 85.204
lradius 24.4001
lwrist 12.7369
lhand -12.2494 -14.065
lfingers 7.12502
lthumb 13.8167 15.4561
rfemur 0.316654 1.98059 21.8484
rtibia 4.03481
rfoot -21.2904 -24.1275
rtoes 8.92365
lfemur -10.9008 3.62934 -8.31165
ltibia 15.1256
lfoot -7.61011 -1.67821
ltoes 32.4667
137
root 6.32231 18.1893 -3.10731 3.12882 2.50418 0.191257
lowerback -3.23179 0.0766325 5.52005
upperback 2.83032 -0.231583 0.840721
thorax 4.73671 0.0561251 -2.23909
lowerneck 1.16435 -2.63506 -2.03171
upperneck 21.2332 -4.1047 3.33213
head 6.35426 -1.89396 1.20008
rclavicle 6.36111e-015 -3.02153e-014
rhumerus -35.1478 -6.27805 -75.0245
rradius 28.9123
rwrist 1.4612
rhand -5.83837 -37.1162
rfingers 7.12502
rthumb 19.9877 -66.1082
lclavicle 6.36111e-015 -3.02153e-014
lhumerus -28.3328 -7.57355 85.2861
lradius 24.5218
lwrist 12.8346
lhand -12.225 -14.091
lfingers 7.12502
lthumb 13.8401 15.4286
rfemur 0.347302 1.86067 21.9801
rtibia 4.02894
rfoot -21.2022 -24.026
rtoes 8.80112
lfemur -11.1197 3.65629 -8.17201
ltibia 15.5749
lfoot -7.71677 -1.80458
ltoes 32.4454
138
root 6.31531 18.1828 -3.11005 3.08171 2.50708 0.091862
lowerback -3.24298 0.0944114 5.56058
upperback 2.84521 -0.213317 0.884934
thorax 4.76048 0.0666096 -2.2145
lowerneck 1.30188 -2.64213 -2.10947
upperneck 21.1459 -4.12698 3.43401
head 6.30689 -1.9057 1.24678
rclavicle -1.05356e-014 -4.77083e-015
rhumerus -35.1832 -6.20306 -75.0501
rradius 28.8966
rwrist 1.47879
rhand -5.81014 -37.0548
rfingers 7.12502
rthumb 20.0149 -66.044
lclavicle -1.05356e-014 -4.77083e-015
lhumerus -28.3692 -7.58255 85.3619
lradius 24.6544
lwrist 12.9038
lhand -12.2337 -14.0746
lfingers 7.12502
lthumb 13.8318 15.4455
rfemur 0.384674 1.75136 22.108
rtibia 4.02315
rfoot -21.1109 -23.9391
rtoes 8.65657
lfemur -11.3225 3.67591 -8.03896
ltibia 16.012
lfoot -7.82512 -1.92858
ltoes 32.3634
139
root 6.30805 18.1764 -3.11227 3.02565 2.51434 0.00327257
lowerback -3.2438 0.111198 5.58946
upperback 2.86557 -0.195013 0.923406
thorax 4.78402 0.0769225 -2.18929
lowerneck 1.48475 -2.64228 -2.08655
upperneck 20.9958 -4.13006 3.46557
head 6.22784 -1.90666 1.25583
rclavicle 8.94531e-015 -2.62396e-014
rhumerus -35.2259 -6.12575 -75.0855
rradius 28.9006
rwrist 1.4738
rhand -5.67019 -37.153
rfingers 7.12502
rthumb 20.1494 -66.128
lclavicle 8.94531e-015 -2.62396e-014
lhumerus -28.4117 -7.5983 85.4313
lradius 24.7889
lwrist 12.9465
lhand -12.2567 -14.0384
lfingers 7.12502
lthumb 13.8096 15.4833
rfemur 0.430313 1.62558 22.2218
rtibia 4.02439
rfoot -21.0186 -23.8458
rtoes 8.52288
lfemur -11.5011 3.68855 -7.91874
ltibia 16.423
lfoot -7.92515 -2.04673
ltoes 32.2296
140
root 6.30075 18.1701 -3.114 2.96417 2.52668 -0.0779383
lowerback -3.23943 0.128772 5.61542
upperback 2.88942 -0.17496 0.954321
thorax 4.80836 0.0882304 -2.17015
lowerneck 1.66605 -2.63807 -2.05609
upperneck 20.8457 -4.12951 3.50999
head 6.14915 -1.90448 1.26787
rclavicle -1.69961e-014 9.54166e-015
rhumerus -35.2736 -6.06538 -75.1252
rradius 28.9166
rwrist 1.44912
rhand -5.4843 -37.3535
rfingers 7.12502
rthumb 20.328 -66.3097
lclavicle -1.69961e-014 9.54166e-015
lhumerus -28.4494 -7.62132 85.4912
lradius 24.9105
lwrist 12.9697
lhand -12.2704 -14.0474
lfingers 7.12502
lthumb 13.7964 15.4752
rfemur 0.480476 1.47398 22.3229
rtibia 4.03183
rfoot -20.9262 -23.7377
rtoes 8.41339
lfemur -11.6591 3.70735 -7.80635
ltibia 16.8072
lfoot -8.00824 -2.15655
ltoes 32.0375
141
root 6.29307 18.164 -3.11554 2.90507 2.54153 -0.174345
lowerback -3.235 0.149631 5.65914
upperback 2.91104 -0.151305 0.982877
thorax 4.83072 0.10189 -2.16311
lowerneck 1.84623 -2.6343 -2.01785
upperneck 20.7004 -4.13072 3.56028
head 6.0724 -1.90222 1.28036
rclavicle -4.96962e-016 1.59028e-014
rhumerus -35.3257 -6.03761 -75.1663
rradius 28.9367
rwrist 1.41743
rhand -5.30373 -37.5998
rfingers 7.12502
rthumb 20.5016 -66.5373
lclavicle -4.96962e-016 1.59028e-014
lhumerus -28.4715 -7.66764 85.5457
lradius 25.0033
lwrist 13.0041
lhand -12.2773 -14.1393
lfingers 7.12502
lthumb 13.7898 15.3836
rfemur 0.526158 1.32508 22.4443
rtibia 4.04196
rfoot -20.8524 -23.6299
rtoes 8.36645
lfemur -11.8079 3.74851 -7.66942
ltibia 17.1685
lfoot -8.06594 -2.25936
ltoes 31.8101
142
root 6.28451 18.1582 -3.11748 2.85386 2.55419 -0.311793
lowerback -3.23152 0.172676 5.73627
upperback 2.92891 -0.12687 1.02021
thorax 4.84998 0.116784 -2.16554
lowerneck 2.00838 -2.6345 -1.98172
upperneck 20.5657 -4.13729 3.61117
head 6.00247 -1.90248 1.29282
rclavicle -1.88845e-015 -1.43125e-014
rhumerus -35.3687 -6.04147 -75.2061
rradius 28.9507
rwrist 1.3961
rhand -5.1626 -37.8117
rfingers 7.12502
rthumb 20.6372 -66.7346
lclavicle -1.88845e-015 -1.43125e-014
lhumerus -28.4736 -7.73791 85.5999
lradius 25.0597
lwrist 13.0584
lhand -12.3083 -14.3195
lfingers 7.12502
lthumb 13.7599 15.2055
rfemur 0.554955 1.22094 22.6249
rtibia 4.0597
rfoot -20.8217 -23.5454
rtoes 8.42968
lfemur -11.9614 3.82345 -7.47116
ltibia 17.5146
lfoot -8.09659 -2.36522
ltoes 31.606
143
root 6.27505 18.1531 -3.12021 2.81076 2.55654 -0.494831
lowerback -3.22967 0.193433 5.84385
upperback 2.94642 -0.107996 1.07372
thorax 4.86962 0.129688 -2.16858
lowerneck 2.13265 -2.6396 -1.95142
upperneck 20.4387 -4.14876 3.65353
head 5.94161 -1.90577 1.30271
rclavicle 2.08724e-015 -3.18055e-015
rhumerus -35.3859 -6.05097 -75.2454
rradius 28.9477
rwrist 1.3867
rhand -5.07686 -37.9277
rfingers 7.12502
rthumb 20.7196 -66.8416
lclavicle 2.08724e-015 -3.18055e-015
lhumerus -28.4638 -7.78658 85.6504
lradius 25.0969
lwrist 13.098
lhand -12.3702 -14.5536
lfingers 7.12502
lthumb 13.7002 14.9755
rfemur 0.561951 1.17908 22.8725
rtibia 4.08896
rfoot -20.8299 -23.4935
rtoes 8.57783
lfemur -12.1235 3.93101 -7.20554
ltibia 17.8539
lfoot -8.11197 -2.47316
ltoes 31.4214
